<svg xmlns="http://www.w3.org/2000/svg" height="48" viewBox="0 -960 960 960" width="48"><path d="M152.5-511q-12.475 0-20.488-8.013Q124-527.025 124-539.5V-808q0-12.475 8.012-20.487 8.013-8.013 20.488-8.013H421q12.475 0 20.487 8.013Q449.5-820.475 449.5-808v268.5q0 12.475-8.013 20.487Q433.475-511 421-511H152.5Zm29-269v188.5V-780Zm358 269q-12.475 0-20.487-8.013Q511-527.025 511-539.5V-808q0-12.475 8.013-20.487 8.012-8.013 20.487-8.013H808q12.475 0 20.487 8.013Q836.5-820.475 836.5-808v268.5q0 12.475-8.013 20.487Q820.475-511 808-511H539.5Zm52-269v188.5V-780Zm-439 656q-12.475 0-20.488-8.012Q124-140.025 124-152.5V-421q0-12.475 8.012-20.487 8.013-8.013 20.488-8.013H421q12.475 0 20.487 8.013Q449.5-433.475 449.5-421v268.5q0 12.475-8.013 20.488Q433.475-124 421-124H152.5Zm29-247v189.5V-371Zm492.325 247q-12.325 0-20.575-8.375T645-153v-105H539q-11.5 0-19.75-8.457-8.25-8.456-8.25-20.718 0-11.825 8.375-20.075T540-315.5h105V-422q0-11 8.457-19.25 8.456-8.25 20.718-8.25 11.825 0 20.075 8.375T702.5-421v105.5H809q11 0 19.25 8.457 8.25 8.456 8.25 20.218 0 12.325-8.375 20.575T808-258H702.5v106q0 11.5-8.457 19.75-8.456 8.25-20.218 8.25ZM568.5-779v210.5H779V-779H568.5Zm-387 0v210.5H392V-779H181.5Zm0 387v210.5H392V-392H181.5Z"/></svg>